<?xml version="1.0" encoding="UTF-8"?>
<svg xmlns="http://www.w3.org/2000/svg" xmlns:xlink="http://www.w3.org/1999/xlink" width="50pt" height="44pt" viewBox="0 0 50 44" version="1.2">
<!-- <defs>
<clipPath id="clip1">
  <path d="M 19 7 L 30.324219 7 L 30.324219 18.324219 L 19 18.324219 Z M 19 7 "/>
</clipPath>
<clipPath id="clip2">
  <path d="M 19 25 L 30.324219 25 L 30.324219 36.324219 L 19 36.324219 Z M 19 25 "/>
</clipPath>
</defs> -->
<!-- <g id="surface1">
<g clip-path="url(#clip1)" clip-rule="nonzero"> -->
<path style="fill:none;stroke-width:2;stroke-linecap:butt;stroke-linejoin:miter;stroke:rgb(0%,0%,0%);stroke-opacity:1;stroke-miterlimit:10;" d="M 0 0 L 11.324219 0 L 11.324219 11.324219 L 0 11.324219 Z M 0 0 " transform="matrix(1,0,0,1,19,7)"/>
<!-- </g>
<g clip-path="url(#clip2)" clip-rule="nonzero"> -->
<path style="fill:none;stroke-width:2;stroke-linecap:butt;stroke-linejoin:miter;stroke:rgb(0%,0%,0%);stroke-opacity:1;stroke-miterlimit:10;" d="M 0 0 L 11.324219 0 L 11.324219 11.324219 L 0 11.324219 Z M 0 0 " transform="matrix(1,0,0,1,19,25)"/>
<!-- </g> -->
<path style="fill:none;stroke-width:1;stroke-linecap:butt;stroke-linejoin:miter;stroke:rgb(0%,0%,0%);stroke-opacity:1;stroke-miterlimit:10;" d="M 0 0.5 L 21.941406 0.5 " transform="matrix(1,0,0,1,14,21)"/>
<!-- </g> -->
</svg>
