<?xml version="1.0" encoding="UTF-8"?>
<svg viewBox="0 0 429.84 242.18" width="428.84px" height="241.18px" xmlns="http://www.w3.org/2000/svg">
  <rect stroke-width="0" fill="rgb(94.117737%,81.568909%,49.01886%)" x="1" y="1" width="65.96" height="59.17" />
  <rect stroke-width="0" fill="rgb(94.117737%,81.568909%,49.01886%)" x="1" y="61.17" width="65.96" height="59.17" />
  <rect stroke-width="0" fill="rgb(15.686035%,28.627014%,55.686951%)" x="1" y="121.34" width="65.96" height="59.17" />
  <rect stroke-width="0" fill="rgb(15.686035%,28.627014%,55.686951%)" x="1" y="181.51" width="65.96" height="59.17" />

  <rect stroke-width="0" fill="rgb(94.117737%,81.568909%,49.01886%)" x="67.96" y="1" width="65.96" height="59.17" />
  <rect stroke-width="0" fill="rgb(94.117737%,81.568909%,49.01886%)" x="67.96" y="61.17" width="65.96" height="59.17" />
  <rect stroke-width="0" fill="rgb(15.686035%,28.627014%,55.686951%)" x="67.96" y="121.34" width="65.96" height="59.17" />
  <rect stroke-width="0" fill="rgb(15.686035%,28.627014%,55.686951%)" x="67.96" y="181.51" width="65.96" height="59.17" />

  <rect stroke-width="0" fill="rgb(94.117737%,81.568909%,49.01886%)" x="134.92" y="1" width="65.96" height="59.17" />
  <rect stroke-width="0" fill="rgb(94.117737%,81.568909%,49.01886%)" x="134.92" y="61.17" width="65.96" height="59.17" />
  <rect stroke-width="0" fill="rgb(15.686035%,28.627014%,55.686951%)" x="134.92" y="121.34" width="65.96" height="59.17" />
  <rect stroke-width="0" fill="rgb(15.686035%,28.627014%,55.686951%)" x="134.92" y="181.51" width="65.96" height="59.17" />

  <rect stroke-width="0" fill="rgb(94.117737%,81.568909%,49.01886%)" x="201.88" y="1" width="65.96" height="59.17" />
  <rect stroke-width="0" fill="rgb(94.117737%,81.568909%,49.01886%)" x="201.88" y="61.17" width="65.96" height="59.17" />
  <rect stroke-width="0" fill="rgb(94.117737%,81.568909%,49.01886%)" x="201.88" y="121.34" width="65.96" height="59.17" />
  <rect stroke-width="0" fill="rgb(92.156982%,92.156982%,92.156982%)" x="201.88" y="181.51" width="65.96" height="59.17" />

  <rect stroke-width="0" fill="rgb(94.117737%,81.568909%,49.01886%)" x="268.84" y="1" width="65.96" height="59.17" />
  <rect stroke-width="0" fill="rgb(94.117737%,81.568909%,49.01886%)" x="268.84" y="61.17" width="65.96" height="59.17" />
  <rect stroke-width="0" fill="rgb(94.117737%,81.568909%,49.01886%)" x="268.84" y="121.34" width="65.96" height="59.17" />
  <rect stroke-width="0" fill="rgb(92.156982%,92.156982%,92.156982%)" x="268.84" y="181.51" width="65.96" height="59.17" />

  <rect stroke-width="0" fill="rgb(58.039856%,63.137817%,66.275024%)" x="335.8" y="1" width="93.04" height="59.17" />
  <rect stroke-width="0" fill="rgb(58.039856%,63.137817%,66.275024%)" x="335.8" y="61.17" width="93.04" height="119.34" />
  <rect stroke-width="0" fill="rgb(58.039856%,63.137817%,66.275024%)" x="335.8" y="181.51" width="93.04" height="59.17" />

</svg>